<svg id="Layer_1" data-name="Layer 1" xmlns="http://www.w3.org/2000/svg" viewBox="0 0 348.98 349.35"><defs><style>.cls-1{fill:#1d1d1b;}.cls-2{fill:#c11718;}.cls-3{fill:#fff;}.cls-4{fill:#e40522;}.cls-5{fill:#1f2a49;}.cls-6{fill:#e30613;}</style></defs><path class="cls-1" d="M292.24,244.85c.15,71-48.76,117.59-108.91,117.59S72.18,312.49,74.42,244.85l0-.1V39.91c63.33,12,109-26.82,109-26.82h-.22s45.64,38.8,109,26.82V244.75Z" transform="translate(-8.33 -13.09)"/><path class="cls-2" d="M57.57,103.8s106.52-118,249.69-2.13l-.43-11.08s35.37,31.11,47.3,72l-30.26-10.22-14.06,27.69s-1.28-14.91-21.73-42.18l-6.39,4.69s-26-46-100.13-44.74c-24.71-1.71-65.19,9-96.29,42.18L78,133.2S60.55,163,56.29,177.94L42.66,153.23S19.22,158.77,12,161.32c8.52-22.15,30.25-56.66,44.74-69A97.16,97.16,0,0,1,57.57,103.8Z" transform="translate(-8.33 -13.09)"/><path class="cls-3" d="M282.83,76.53h-2.56v-23c-4.16.37-8.35.55-12.49.55a148.6,148.6,0,0,1-53-9.9A155.87,155.87,0,0,1,183.31,28a156,156,0,0,1-31.5,16.25,148.56,148.56,0,0,1-53,9.9c-4.13,0-8.33-.18-12.49-.55V75.68H83.79V52.16a1.27,1.27,0,0,1,.42-.95,1.25,1.25,0,0,1,1-.32c4.53.44,9.12.67,13.64.67,39.62,0,69.48-16.42,83.75-26.2a1.28,1.28,0,0,1,1.45,0c14.28,9.78,44.14,26.2,83.75,26.2,4.52,0,9.11-.23,13.64-.67a1.27,1.27,0,0,1,1.41,1.27Z" transform="translate(-8.33 -13.09)"/><rect class="cls-3" x="76.93" y="132.47" width="2.56" height="62.21"/><rect class="cls-3" x="270.38" y="132.47" width="2.56" height="62.21"/><path class="cls-4" d="M76.89,129.65l1.73,1.81S78,133.2,85.27,140c31.1-33.23,71.58-43.89,96.29-42.18,74.14-1.28,100.13,44.74,100.13,44.74a9.36,9.36,0,0,0,.93-1.88l26.58-35.54-1.94-3.49C164.09-14.22,57.57,103.8,57.57,103.8l-1.52,4,20.84,21.81" transform="translate(-8.33 -13.09)"/><path class="cls-4" d="M116.37,167s58.8-57.45,132.09-.46c0-53.8-.11-54.05-.11-54.05S233.54,93.15,179,93.15c-17.47,0-50.27,10-62.2,21C116.8,135.55,116.37,167,116.37,167Z" transform="translate(-8.33 -13.09)"/><path class="cls-5" d="M308.33,187.7l-.64-7.45c0-.13-1.53-14.17-20.06-39.39L281,145.71l-1.18-2.09c-.07-.11-6.57-11.36-21.85-22.3-14.1-10.1-38.8-22-76.39-21.35h0c-13.13,0-58.77,3.07-94.74,41.51L85.36,143l-6.84-6.44c-4.15,7.27-16.72,29.83-20.18,41.93l-1.42,5L41.57,155.68c-5.36,1.28-22.91,5.54-28.88,7.65l-4.36,1.54L10,160.56c4.21-10.95,11.62-25,20.33-38.57,9-14,18.11-25.42,25-31.31l3-2.54L58.83,92c.34,2.54.54,4.87.67,6.78A171.64,171.64,0,0,1,75.16,85.47,189.83,189.83,0,0,1,128,57.26,161.6,161.6,0,0,1,208.21,51c32.43,5.64,65,21.14,96.74,46.1l-.44-11.39L308.24,89a181.82,181.82,0,0,1,19.43,20.94c9.54,11.91,22.24,30.61,28.5,52.08l1.15,3.92L324.94,155Zm-19.81-52.77,1.27,1.68c13.32,17.77,18.65,30.41,20.77,37.28l12.25-24.12,28,9.47c-6.38-19.1-17.75-35.73-26.44-46.58a198.32,198.32,0,0,0-15.24-16.93l.41,10.55-3.65-3c-73.13-59.2-136.26-55.56-176.34-42.09a184.94,184.94,0,0,0-51.7,27.52,148.32,148.32,0,0,0-18.73,16.47l-3.71,4.1V103.8s0-3-.37-7.06C42.42,109.36,24.58,137,15.65,157.94c9.43-2.74,25.71-6.59,26.52-6.78l1.57-.38,12.07,21.88c5.84-15.64,19.72-39.42,20.37-40.53l1.35-2.31,7.65,7.2a136.48,136.48,0,0,1,96.36-41.31,147.13,147.13,0,0,1,47.6,6.55A113,113,0,0,1,260.67,118c12.23,8.8,19,17.64,21.6,21.51Z" transform="translate(-8.33 -13.09)"/><polygon class="cls-3" points="119.31 112.3 120.8 116.91 125.65 116.91 121.73 119.76 123.23 124.37 119.31 121.52 115.38 124.37 116.88 119.76 112.96 116.91 117.81 116.91 119.31 112.3"/><polygon class="cls-3" points="226.26 112.3 227.76 116.91 232.61 116.91 228.69 119.76 230.19 124.37 226.26 121.52 222.34 124.37 223.84 119.76 219.92 116.91 224.76 116.91 226.26 112.3"/><ellipse class="cls-3" cx="174.82" cy="241.65" rx="95.41" ry="94.84"/><circle class="cls-3" cx="174.82" cy="241.65" r="87.08"/><path class="cls-3" d="M144,124.75a2.25,2.25,0,0,1,.79,1.37,1.89,1.89,0,0,1-1,2.4,2.55,2.55,0,0,1-1.66.09,3.65,3.65,0,0,1-1.52-.77c0,1.51-.29,2.41-.93,2.69a2.05,2.05,0,0,1-1.33-.06,1.46,1.46,0,0,1-1-.63.53.53,0,0,1-.05-.15l0-.52a.33.33,0,0,1,.22-.31c.54.23.85.32.94.28s.35-.39.43-.88a1.81,1.81,0,0,0-.06-1.08c0-.07-.06-.1-.1-.08l-3.1,1.39-1.79-.69,10.71-4.8,1.86.66-1.12.5-1.28.58Zm-.9.77c-.17-.15-.3-.21-.38-.2l-2.06.93a2.21,2.21,0,0,0,.4.42,1.55,1.55,0,0,0,1.82.25.84.84,0,0,0,.56-.66.33.33,0,0,0,0-.32A1.38,1.38,0,0,0,143.08,125.52Z" transform="translate(-8.33 -13.09)"/><path class="cls-3" d="M145.32,133.35a.29.29,0,0,1,.14,0,31.18,31.18,0,0,1,4.92,1.64l.78,1.34a16.78,16.78,0,0,0-8.18-1.49l-1.09.06-2.28-2.36a5.53,5.53,0,0,0,3.43-.12,3.29,3.29,0,0,0,1.45-.95,2,2,0,0,0,.49-1.65,1.1,1.1,0,0,0-.51-.74c-.08-.05-.21,0-.4,0a1,1,0,0,0-.41.26,2.13,2.13,0,0,1-.43,2,1.69,1.69,0,0,1-.8.62,1.58,1.58,0,0,1-1.09,0,1.05,1.05,0,0,1-.73-.77,2.67,2.67,0,0,1,.14-1.36,4.21,4.21,0,0,1,1.43-1.51,5.36,5.36,0,0,1,.74-.34,2.85,2.85,0,0,1,2.22,0,2.72,2.72,0,0,1,1.46,1.64C147,130.74,146.58,132,145.32,133.35Z" transform="translate(-8.33 -13.09)"/><path class="cls-3" d="M147,123.31c-.38-.83-.75-1.76-1.12-2.78l.92.33a4.53,4.53,0,0,0,.61.9l.29.2,1.37-.49,1.73.83-2.55.91,3.55,9.91-1.73-.9-2.48-6.93a1.52,1.52,0,0,0-.53-.78,1.66,1.66,0,0,0-1.6-.3l-.29.11-1.73-.79a8.63,8.63,0,0,1,1.86-.71A1.93,1.93,0,0,1,147,123.31Z" transform="translate(-8.33 -13.09)"/><path class="cls-3" d="M156.78,117a5.29,5.29,0,0,0-3.47-.06,4.1,4.1,0,0,0-1.88,1.42,7.48,7.48,0,0,0-.38.94,1.68,1.68,0,0,0-.16.84l.52.57,1.68-.52,1.7.89-2.6.82,3,9.66-1.72-.85-2.63-8.4-1.25.39-1.7-.89,2.42-.76c-.21-.11-.43-.23-.64-.36a1,1,0,0,1-.42-.53,2.12,2.12,0,0,1-.07-.94,6.27,6.27,0,0,1,.57-1.53,5.44,5.44,0,0,1,1-1.22,3.28,3.28,0,0,1,1.2-.66,7.94,7.94,0,0,1,4.32.06,11.19,11.19,0,0,1,2.2,1l.79,1.08Z" transform="translate(-8.33 -13.09)"/><path class="cls-3" d="M162,120.92l-.34-1-.93-3.36,1,.42a1,1,0,0,0,.14.15,1.16,1.16,0,0,0,.34.6l.3.11.55-.12a4.71,4.71,0,0,1,.77-.14l1.59,1-2.68.62,2.27,9.78a8.36,8.36,0,0,1-1.7-.95l-1-5a3.41,3.41,0,0,0-1.25-1.39l-2.41,4-1.93-.25.77-1.32a.57.57,0,0,0,0-.44c-.12-.51-.32-.72-.61-.64-.06,0-.4.22-1,.62a.8.8,0,0,1-.77-.08,1,1,0,0,1-.49-.63,1.23,1.23,0,0,1,0-.65,4.28,4.28,0,0,1,3.12-3.11,3.5,3.5,0,0,1,2.37.24A5,5,0,0,1,162,120.92Zm-3.66,1.93,1.36-2.16a1.94,1.94,0,0,0-1.28-.22,2.09,2.09,0,0,0-1.62,1.27C157.52,121.68,158,122.05,158.38,122.85Z" transform="translate(-8.33 -13.09)"/><path class="cls-3" d="M164.76,118.79l-1.51-1.2,12.59-1.42,1.58,1.19Zm9.5,6.62a4.38,4.38,0,0,1-2.09.91,4.19,4.19,0,0,1-1.39-.09,3.46,3.46,0,0,1-1.31-.57,6.16,6.16,0,0,1-1.05-1,9.14,9.14,0,0,1-1.36-1.77,42,42,0,0,1-2-4.14l1.05.29c.51.93.87,1.58,1.1,2a12.86,12.86,0,0,0,1.32,1.82,3.89,3.89,0,0,0,3.46,1.48,3,3,0,0,0,1.75-1,1.82,1.82,0,0,0,.53-1.49,2.23,2.23,0,0,0-.52-1.2,1.29,1.29,0,0,0-1.14-.53,1.82,1.82,0,0,0-.31.07,2,2,0,0,1,.34.94c.11,1-.4,1.63-1.52,1.76a1.69,1.69,0,0,1-1.95-1.31,3.06,3.06,0,0,1-.12-.51,2,2,0,0,1,.6-1.7,2.58,2.58,0,0,1,1.63-.81,4.89,4.89,0,0,1,.92,0,3.78,3.78,0,0,1,3,2.55,4.37,4.37,0,0,1,.34,1.26A3.16,3.16,0,0,1,174.26,125.41Z" transform="translate(-8.33 -13.09)"/><path class="cls-3" d="M181.86,120.68a2.85,2.85,0,0,1-.72.63,2.11,2.11,0,0,1-.91.18,2.48,2.48,0,0,1-1.75-.67,2.29,2.29,0,0,1-.79-1.69,2.32,2.32,0,0,1,.76-1.71,2.53,2.53,0,0,1,1.72-.8,2.16,2.16,0,0,1,1.64.67,2.34,2.34,0,0,1,.7,1.68A2.47,2.47,0,0,1,181.86,120.68Zm.23,5.44a2.12,2.12,0,0,1-1.77,1,2.29,2.29,0,0,1-1.73-.69,2.55,2.55,0,0,1,1.7-4.27,2.05,2.05,0,0,1,1.61.7,2.56,2.56,0,0,1,.68,1.68A2.61,2.61,0,0,1,182.09,126.12Zm-1.49-8.06a1.25,1.25,0,0,0-1,.48,1.49,1.49,0,0,0-.4,1c0,.41.15.6.43.6a2,2,0,0,0,.84-.37c.37-.24.57-.45.59-.64a3.23,3.23,0,0,0,0-.48C181.12,118.26,180.94,118.05,180.6,118.06Zm-.13,5.53a1,1,0,0,0-.84.45,1.79,1.79,0,0,0-.27,1c0,.59.19.87.53.87a1.23,1.23,0,0,0,.92-.46,1.4,1.4,0,0,0,.39-1C181.18,123.88,180.94,123.58,180.47,123.59Z" transform="translate(-8.33 -13.09)"/><path class="cls-3" d="M194.05,127.18a18,18,0,0,0-2-1.47,11.73,11.73,0,0,0-2.33-1l-.6-3.51.4-.07c.06.37.55.8,1.45,1.3a9.39,9.39,0,0,0,2,.84,2.32,2.32,0,0,0,1.32-.13q.75-.25.81-.75a.61.61,0,0,0-.05-.29,3.53,3.53,0,0,0-1.42-1.81l-1.78-1.13c-.65-.41-.94-.87-.89-1.37a2.23,2.23,0,0,1,.33-.83,1.45,1.45,0,0,1,1.08-.34,6.65,6.65,0,0,1,.7.25,1.17,1.17,0,0,1,.38,1,9.21,9.21,0,0,1,2.11,1.75,3.36,3.36,0,0,1,.8,2.56,3,3,0,0,1-.71,1.76,7.59,7.59,0,0,1-1.11.79,3,3,0,0,1-.94.29c.33.29.95.86,1.85,1.7a23.59,23.59,0,0,1,1.7,1.9l.14,2A19.5,19.5,0,0,0,194.05,127.18Z" transform="translate(-8.33 -13.09)"/><path class="cls-3" d="M201.63,128.42a3.7,3.7,0,0,1-2.42-1.87,4.28,4.28,0,0,1-.41-3,3.37,3.37,0,0,1,1.8-2.36,4.17,4.17,0,0,1,3-.38,3.7,3.7,0,0,1,2.9,2.49,3.88,3.88,0,0,1,.16,2.26,3.6,3.6,0,0,1-1.88,2.46A4,4,0,0,1,201.63,128.42Zm2.31-6.13a3,3,0,0,0-1.58.13,3.09,3.09,0,0,0-1.34.82,3.8,3.8,0,0,0-1,1.64,1.56,1.56,0,0,0,.22,1.25,1.61,1.61,0,0,0,1,.7,3.38,3.38,0,0,0,2.24-.4,3,3,0,0,0,1.73-2.05,1.72,1.72,0,0,0-.2-1.35A1.74,1.74,0,0,0,203.94,122.29Z" transform="translate(-8.33 -13.09)"/><path class="cls-3" d="M211.27,131.65a3.82,3.82,0,0,1-1.94,0,2.18,2.18,0,0,1-1.12-.86,1.41,1.41,0,0,1-.3-1.33,1.75,1.75,0,0,1,.87-1,2.64,2.64,0,0,1,1.28-.34,2,2,0,0,1,.66.11,2.79,2.79,0,0,1,1.66,1.18,1.76,1.76,0,0,0,.75-.91,2.06,2.06,0,0,0-.2-1.29,32.76,32.76,0,0,0-1.9-3.83,2.53,2.53,0,0,1-.43-2,1.41,1.41,0,0,1,1.13-1,1.24,1.24,0,0,1,.64,0,1.08,1.08,0,0,1,.72.66,1.52,1.52,0,0,1,0,1c0,.1-.07.19-.11.29l-.19.18a20.43,20.43,0,0,1,1.45,3.18,5.44,5.44,0,0,1,.18,3.39A3.82,3.82,0,0,1,211.27,131.65Z" transform="translate(-8.33 -13.09)"/><path class="cls-3" d="M218.46,134.26a3.59,3.59,0,0,1-2.22-1.92,2.63,2.63,0,0,1-.16-2.22,1.54,1.54,0,0,1,.33-.47,2.92,2.92,0,0,1,2.35-1,2.39,2.39,0,0,1-.44-2.78,2.81,2.81,0,0,1,2-1.61,4.22,4.22,0,0,1,2.58.07,3.37,3.37,0,0,1,1.81,1.45,2.34,2.34,0,0,1,.2,2.25,2.5,2.5,0,0,1-.93,1.06,3.19,3.19,0,0,1-1.31.58,2.93,2.93,0,0,1,.46,3.3,2.45,2.45,0,0,1-2,1.55A4.94,4.94,0,0,1,218.46,134.26Zm2.65-3.2a2.2,2.2,0,0,0-1.05-1.2,5.37,5.37,0,0,0-1.72.55,1.27,1.27,0,0,0-.48.6,1.09,1.09,0,0,0,.12,1.17,2.29,2.29,0,0,0,1,.77,1.88,1.88,0,0,0,2.36-.39A2.13,2.13,0,0,0,221.11,131.06Zm1.21-5.69a2.09,2.09,0,0,0-1.17-.13,1.14,1.14,0,0,0-.94.63,1.61,1.61,0,0,0,.12,1.37,2.75,2.75,0,0,0,.91,1.08,9.83,9.83,0,0,0,1.23-.18,1.36,1.36,0,0,0,.95-.72,1.21,1.21,0,0,0-.1-1.19A2.2,2.2,0,0,0,222.32,125.37Z" transform="translate(-8.33 -13.09)"/><path class="cls-5" d="M191.69,300.75h0Z" transform="translate(-8.33 -13.09)"/><path class="cls-5" d="M190.23,300.75h0Z" transform="translate(-8.33 -13.09)"/><path class="cls-6" d="M155.77,308.61a8.22,8.22,0,0,1,1.52-1.38c3.39-1.88,7.14-2.24,10.91-2.23a21.26,21.26,0,0,1,10.85,2.49,2.38,2.38,0,0,1,1,1.45,25.14,25.14,0,0,0-12-2.75c-4.16,0-8.2.5-11.77,2.93Z" transform="translate(-8.33 -13.09)"/><path class="cls-6" d="M179.79,302.9c-7.83-3.82-15.66-3.94-23.91-.22.27-.4.46-1,.82-1.17a38.68,38.68,0,0,1,7-2.28c5.17-.78,10.31-.48,15.09,2a9.34,9.34,0,0,1,1.46,1.23Z" transform="translate(-8.33 -13.09)"/><path class="cls-6" d="M210.05,308.75c-8.3-3.69-16.16-3.55-24,.29l-.38-.36A7.39,7.39,0,0,1,187,307.4,22.72,22.72,0,0,1,199,305c3.53.12,7,.55,10.1,2.49A5,5,0,0,1,210.05,308.75Z" transform="translate(-8.33 -13.09)"/><path class="cls-5" d="M220.64,323.38H145.16V278.47h3.58c1.09-2.8,3.4-3.82,5.81-4.63a31.26,31.26,0,0,1,19.95-.4c3,.95,5.66,2.72,8.86,4.31,4.41-4.15,10.44-5.77,16.87-5.64,6.18.13,12.47.46,17.28,6.23h3.13ZM182,318.19c0-.38.06-.71.06-1,0-12.08,0-24.15-.06-36.21a4.2,4.2,0,0,0-1.45-2.76c-6.49-5.5-21.34-6.29-28.5-1.65a3.14,3.14,0,0,0-1.57,2.94c.05,11.94,0,23.87,0,35.81,0,.51,0,1,.08,1.5C161.25,313.51,171.59,314.29,182,318.19Zm33.23-1.39v-2.12c0-11.47-.07-22.94.06-34.42a4.14,4.14,0,0,0-2.84-4.39,31,31,0,0,0-16.17-2.07c-4.15.48-8.07,1.69-11.24,4.53a4.3,4.3,0,0,0-1.32,2.83c-.09,11.87-.06,23.74-.05,35.61,0,.49.07,1,.1,1.42C194.19,314.27,204.53,313.54,215.26,316.8Z" transform="translate(-8.33 -13.09)"/><path class="cls-5" d="M174.46,250.42l4.42,25c1.43.75,2.89,1.58,4.48,2.37a19.08,19.08,0,0,1,5.28-3.51c1.4-7.94,2.79-15.84,4.2-23.82Z" transform="translate(-8.33 -13.09)"/><path class="cls-5" d="M170.77,242.23c0,1.94.74,3.15,2.95,3.2q9.92.23,19.83,0c2.3-.05,3.14-1.39,3-3.23A113.74,113.74,0,0,1,170.77,242.23Z" transform="translate(-8.33 -13.09)"/><path class="cls-5" d="M183.78,249.36c2.91,0,5.83.07,8.74-.06,2.55-.12,3.52-1.31,3.27-3a113.56,113.56,0,0,1-24.38-.12c.22,2.2,1.05,3.06,3.62,3.15C177.94,249.41,180.86,249.36,183.78,249.36Z" transform="translate(-8.33 -13.09)"/><path class="cls-6" d="M155.09,251.75l6.11,3.39A6.1,6.1,0,0,0,155.09,251.75Z" transform="translate(-8.33 -13.09)"/><path class="cls-6" d="M213.83,242.12l-5.36,4,.61.83,5.21-4.18Z" transform="translate(-8.33 -13.09)"/><path class="cls-6" d="M205.38,254.57l.28.52,6.31-3.5C208.88,251.47,207.05,252.86,205.38,254.57Z" transform="translate(-8.33 -13.09)"/><path class="cls-6" d="M156.43,224.77l3.54,5.7C159.8,227.89,159,225.76,156.43,224.77Z" transform="translate(-8.33 -13.09)"/><path class="cls-6" d="M158.13,236.73c-1.24-2-2.62-3.89-5.67-4.55l5.24,5Z" transform="translate(-8.33 -13.09)"/><path class="cls-6" d="M164.5,227.82c-9.13,10.14-5.6,26.35,4.43,32.52a32.33,32.33,0,0,1,1.12-3.45c.69-1.58.28-2.55-1-3.74a19.6,19.6,0,0,1-6.5-17.44A60.23,60.23,0,0,1,164.5,227.82Z" transform="translate(-8.33 -13.09)"/><path class="cls-6" d="M158.23,246.57c-1.38-1.9-2.9-3.62-6-4.08l5.68,4.55Z" transform="translate(-8.33 -13.09)"/><path class="cls-6" d="M210.36,224.75l-.71-.45-3.43,5.45.8.59Z" transform="translate(-8.33 -13.09)"/><path class="cls-6" d="M209.17,237.1l5.23-5c-3,.69-4.42,2.51-5.63,4.57C208.9,236.81,209,237,209.17,237.1Z" transform="translate(-8.33 -13.09)"/><path class="cls-6" d="M181.12,242c-2.15-5.34-.86-9.5,3.89-12.52-.64,3.37-.53,3.9,1.87,6.21a3.55,3.55,0,0,1,.88,4.09c-.26.75-.6,1.47-.94,2.29,7.73-.95,12.37-8.7,9.21-15.43-1.3-2.77-3.29-5.23-5.06-8l-1.76,2.25a78.59,78.59,0,0,0-2.3-7.89c-1-2.55-3.3-4-5.78-5.44,1.16,5-.19,9.07-3.51,10.33l-1-3c-3.18,2.57-3.91,4.8-2.89,8.62a31.35,31.35,0,0,1,1,4.13c.06.48-.56,1-.87,1.57-.46-.37-1.07-.64-1.34-1.11a23.06,23.06,0,0,1-1.12-2.93C168.24,234.52,173.19,242.77,181.12,242Z" transform="translate(-8.33 -13.09)"/><path class="cls-6" d="M198.4,260.09c10.56-6.89,12.45-24.14,3.46-32.9.42.93.73,1.54,1,2.18,3.2,7.94,2.45,15.55-3.3,21.88-2.56,2.83-2.82,5.08-1.49,8.13Z" transform="translate(-8.33 -13.09)"/><path class="cls-5" d="M183.29,186.1A57.65,57.65,0,0,0,145.16,287v-2.09a52.31,52.31,0,1,1,75.48.82v2A57.65,57.65,0,0,0,183.29,186.1Z" transform="translate(-8.33 -13.09)"/><path class="cls-6" d="M179.46,296.58c-9.87-4.2-18.66-4.19-25.59,0l-.51-.27c.31-.47.52-1.21.95-1.37a37.27,37.27,0,0,1,7.27-2.39c5.84-.89,11.63-.63,17,2.27a6.25,6.25,0,0,1,1.33,1.38Z" transform="translate(-8.33 -13.09)"/><path class="cls-6" d="M179.44,284.73c-8.35-4.19-16.82-5.13-26.12-.94.32-.66.43-1.36.77-1.49a27.23,27.23,0,0,1,5.95-2.05c6.42-.94,12.71-.43,18.54,2.78A7.54,7.54,0,0,1,180,284.3Z" transform="translate(-8.33 -13.09)"/><path class="cls-6" d="M179.29,290.3c-8.46-4.12-17-4.64-25.67-.46l-.4-.43a9.15,9.15,0,0,1,1.52-1.41,20.66,20.66,0,0,1,9.79-2.21c5-.13,9.8.45,14.21,3a5.87,5.87,0,0,1,1.18,1.29Z" transform="translate(-8.33 -13.09)"/><path class="cls-6" d="M212.48,289.9c-8.84-4.17-17.51-3.81-26.5.28.27-.43.46-1.1.84-1.24a49.7,49.7,0,0,1,8-2.71,27,27,0,0,1,14.1.84,29.88,29.88,0,0,1,3.79,1.91Z" transform="translate(-8.33 -13.09)"/><path class="cls-6" d="M212.69,283.89c-9.34-4.3-17.81-3.37-26.65.65.25-.43.4-1.09.76-1.24a44.17,44.17,0,0,1,6.82-2.62,29,29,0,0,1,14.76.1,17,17,0,0,1,3.56,1.69C212.24,282.63,212.33,283.17,212.69,283.89Z" transform="translate(-8.33 -13.09)"/><path class="cls-6" d="M185.93,296.28c.33-.43.58-1.08,1-1.24a44.12,44.12,0,0,1,7.47-2.46,28.52,28.52,0,0,1,13.93.89,16,16,0,0,1,3.22,1.5c.4.23.57.85.84,1.3a5.81,5.81,0,0,1-1.46-.28,26.85,26.85,0,0,0-23.19,0c-.47.21-.9.49-1.34.74Z" transform="translate(-8.33 -13.09)"/><path class="cls-6" d="M185.58,302.71c.44-.5.71-1.09,1.14-1.24a44.9,44.9,0,0,1,6.86-2.21,26.34,26.34,0,0,1,11.87.57,16.25,16.25,0,0,1,3.34,1.39c.49.26.79.89,1.18,1.35a6,6,0,0,1-1.61-.33,22.94,22.94,0,0,0-14-1.91C191.56,300.74,188.83,301.8,185.58,302.71Z" transform="translate(-8.33 -13.09)"/><path class="cls-3" d="M79.71,106.76l2.9,3.15c.26.29.64.21,1.12-.24a2,2,0,0,0,.39-1.74l1.72-1.58,4.45,4.83a2.06,2.06,0,0,1-.19,3.29l-4.38,4A5.53,5.53,0,0,1,83.25,120a2.78,2.78,0,0,1-2.58-1.08l-4.14-4.5,2-1.86,4.26,4.64a1.5,1.5,0,0,0,2.39,0l2.74-2.53a1.25,1.25,0,0,0,.07-2l-3-3.25a2,2,0,0,1-.53,1.62l-1.22,1.13c-.81.74-1.67.61-2.58-.38l-3-3.23-4.47,4.11-.85-1,7.45-6.85-.19-.2c-.54-.59-1.29-.46-2.22.4-.17.16-.4.4-.7.72s-.54.57-.7.72a13.25,13.25,0,0,1-2,1.67,1.78,1.78,0,0,1-2.26-.53l-.36-.39,2.08-1.92a2.13,2.13,0,0,0,.88.61c.2,0,.5-.14.88-.49l3.25-3c1-.94,2.16-.77,3.43.5l1.64-1.5.86.94Z" transform="translate(-8.33 -13.09)"/><path class="cls-3" d="M93.1,96q1.38.12,1.68.51L95.92,98c.67.89.61,2-.17,3.36,1.54-.35,2.57-.16,3.11.56l1.55,2.06q1.19,1.56-.71,3l-4.51,3.39a3.35,3.35,0,0,1-2,.75,2.34,2.34,0,0,1-1.9-1l-1.83-2.45L91.6,106a21,21,0,0,0,1.25,1.92c.83,1.11,1.66,1.34,2.51.71l2.34-1.76a1,1,0,0,0,.3-1.6l-1.3-1.73c-.53-.71-1.42-.65-2.66.17l-1-1.3.32-.24c1-.68,1.22-1.41.64-2.19l-1.3-1.72a1,1,0,0,0-.74-.39,1.25,1.25,0,0,0-.85.26l-1.49,1.12c-.72.54-.7,1.31.06,2.32l.59.79L88.14,104l-.86-1.14a3,3,0,0,1-.4-2.19l-3,2.25-.77-1,11.43-8.59.77,1Z" transform="translate(-8.33 -13.09)"/><path class="cls-3" d="M105.43,88.14,112.12,99l-6.62,4.08a3.87,3.87,0,0,1-2.32.65,2.45,2.45,0,0,1-2-1.27l-3.11-5a2.11,2.11,0,0,1-.22-1.87A2.82,2.82,0,0,1,99.13,94l5-3.07-.89-1.45-8.55,5.25L94,93.66l12.28-7.55L107,87.2Zm-.57,4-3.74,2.31a1.41,1.41,0,0,0-.43,2.23l2.69,4.38c.54.87,1.32,1,2.33.38l3.54-2.18Zm5.44,11.07-1.62,1c-.46.28-.82.22-1.07-.19l-.18-.29a.7.7,0,0,1,.2-1.1l1.47-.9a.76.76,0,0,1,1.2.23l.18.29A.61.61,0,0,1,110.3,103.23Z" transform="translate(-8.33 -13.09)"/><path class="cls-3" d="M110,85.77,116,97l-2.28,1.22L107.7,87l-1.57.83-.6-1.13,5.55-3,.61,1.13Z" transform="translate(-8.33 -13.09)"/><path class="cls-3" d="M134,75.49l4.47,11.7-2.27.87-.46-1.22c-.57-1.64-1.47-2.23-2.72-1.75l-.21.08a3.08,3.08,0,0,1,.23,2.07,2.7,2.7,0,0,1-1.62,1.21l-6.85,2.62q-2.53,1-3.66-1.95l-1.64-4.31,2.54-1,1.64,4.29a1.72,1.72,0,0,0,2.55,1l3.41-1.31c.88-.33,1.1-1.06.68-2.18l-2.45-6.39q-.24-.64-1.08-.33c-.8.31-1,1-.62,2,.06.12.29.63.7,1.52l-2.52,1L123.18,81a1.53,1.53,0,0,1,.45-1.52l-6.9,2.65-.46-1.2,19-7.27.46,1.2Zm-2.27.87-2.86,1.09a1.87,1.87,0,0,1,1.4,1l2,5.15a3.31,3.31,0,0,1,2.37.27Z" transform="translate(-8.33 -13.09)"/><path class="cls-3" d="M141.44,73.5A2.46,2.46,0,0,0,140,74.56a2,2,0,0,0-.25,1.69l2.1,7.25c.22.76.5,1.21.84,1.37a3.15,3.15,0,0,0,1.61-.17l.36,1.23-2,.59a2.27,2.27,0,0,1-2-.23,3,3,0,0,1-1.17-1.71l-2-7c-.25-.86.16-2,1.25-3.26l-3.6,1-.36-1.24L141.86,72l.42,1.21Z" transform="translate(-8.33 -13.09)"/><path class="cls-3" d="M152.09,71l1.26,5.55-2.61.59-.52-2.28a2.1,2.1,0,0,0-2.09-.77l-1.27.29c-.53.12-.72.49-.58,1.12a.59.59,0,0,0,.54.52,3.4,3.4,0,0,0,.77-.13l.29,1.25-1.3.3c-1.55.35-2.44,0-2.68-1.06l-.26-1.14A1.2,1.2,0,0,1,144,74a2.2,2.2,0,0,1,1.15-.61l2.7-.61a2,2,0,0,1,2.06.66l-.43-1.91L141,73.5l-.28-1.25,13.22-3,.28,1.25Z" transform="translate(-8.33 -13.09)"/><path class="cls-3" d="M148.83,84.7c-1.47.28-2.32-.22-2.56-1.49L146,81.66c-.13-.72.29-1.36,1.27-1.92l3.82-2.18L151,77l2.54-.47,1.32,7Zm2.56-5.46-1.87.81c-.73.42-1,.93-.92,1.52l.19,1a.68.68,0,0,0,.88.63l2.38-.44Z" transform="translate(-8.33 -13.09)"/><path class="cls-3" d="M166.44,68.79l1.77,12.62-8.47,1.21a4.65,4.65,0,0,1-2.25-.09,2.05,2.05,0,0,1-1.16-1.79L156,78a1.44,1.44,0,0,1,.81-1.7,11,11,0,0,1,2.08-.41q1-.14,1.14-.54a5.36,5.36,0,0,0-.11-1.4c-.06-.47-.53-.65-1.39-.53l-.6.12-.61.12c-1.26.18-2-.42-2.18-1.79,0-.17-.06-.41-.11-.73s-.08-.57-.1-.73l-1.56.21-.17-1.26,15.16-2.13.18,1.27Zm-2.61.36-6.3.89.19,1.32a1.59,1.59,0,0,0,.28.75,2,2,0,0,0,.79.09,4,4,0,0,0,.78-.09l.8-.16a1.52,1.52,0,0,1,1.88,1.33,2.72,2.72,0,0,1,2.26.73Zm-2.06,7.29-.54.14a9.48,9.48,0,0,0-1.81.55,1,1,0,0,0-.72,1.23l.28,2c.1.71.63,1,1.61.86l4.84-.68-.68-4.83a3.77,3.77,0,0,0-2.24-.75c.06.94-.24,1.53-.89,1.76Z" transform="translate(-8.33 -13.09)"/><path class="cls-3" d="M179.75,68l.71,12.75-2.63.14-.53-9.56c-.59-1.21-1.36-1.79-2.3-1.74l-2.13.11a1,1,0,0,0-1.08,1.25L171.9,73a1.29,1.29,0,0,0,1.54,1.36l1.13-.06.08,1.55-2.36.13c-1.9.11-2.89-.65-3-2.27l-.16-3a2.17,2.17,0,0,1,.49-1.59,2,2,0,0,1,1.5-.7l3.75-.21a3.84,3.84,0,0,1,2.3,1l-.13-2.45,4.44-.24.07,1.28Z" transform="translate(-8.33 -13.09)"/><path class="cls-3" d="M199.46,68.64l-.81,12.75-2.58-.17.36-5.63-4.26-.27c-1-.06-1.58.3-1.63,1.09l-.1,1.51c0,.71.48,1.11,1.56,1.18h1.36l-.08,1.28-3.18-.2a2.46,2.46,0,0,1-1.66-.71,2,2,0,0,1-.58-1.65l.13-2.14c.09-1.33.94-2,2.55-1.85l.8.05.8,0,.08-1.3c0-.63-.31-1-1.06-1h-.6a5.87,5.87,0,0,1-.6,0c-1.13-.07-1.66-.74-1.58-2,0-.18,0-.46.05-.83s0-.65,0-.82l-1.61-.11.08-1.28,14.77.94-.09,1.28Zm-2.58-.16-5.75-.37-.13,1c-.11.84.33,1.29,1.34,1.36l.54,0,.54,0c1.06.06,1.54.74,1.46,2,0,.17,0,.42-.07.76s-.06.59-.07.75l1.77.11Z" transform="translate(-8.33 -13.09)"/><path class="cls-3" d="M206.89,69.58a2.43,2.43,0,0,0-1.73.41,2,2,0,0,0-.9,1.46l-.92,7.48a2,2,0,0,0,.23,1.59,3.15,3.15,0,0,0,1.55.49L205,82.28,202.84,82a2.26,2.26,0,0,1-1.71-1,3,3,0,0,1-.41-2l.9-7.27c.11-.89.92-1.72,2.44-2.5l-3.73-.46.16-1.27,7.36.91-.09,1.28Z" transform="translate(-8.33 -13.09)"/><path class="cls-3" d="M215.34,71l-.79,4.22q-.12.65.63.78a2,2,0,0,0,1.86-.77l2.21.42L218,82.13c-.28,1.5-1.09,2.13-2.43,1.88l-6.08-1.15a5.06,5.06,0,0,1-2.61-1.08,2.81,2.81,0,0,1-.59-2.68l1.08-5.77,2.55.48-1.12,6c-.21,1.07.26,1.72,1.4,1.93l3.68.69a1.26,1.26,0,0,0,1.66-1.15l.82-4.35a1.72,1.72,0,0,1-1.62.56l-1.64-.31a1.32,1.32,0,0,1-1-.71,2,2,0,0,1-.17-1.31l.86-4.56-6.16-1.16.23-1.26,14.9,2.81-.24,1.26Z" transform="translate(-8.33 -13.09)"/><path class="cls-3" d="M235.37,76.2l-3.55,12.25-2.49-.73,2-6.86-1.52-.44c-.77-.23-1.4.25-1.9,1.41l-1.77-.51q.38-1.16.09-1.59a2.69,2.69,0,0,0-1.49-.78,2.11,2.11,0,0,0-1.06-.13,1.07,1.07,0,0,0-.64.82l-.58,2c-.25.86.32,1.49,1.7,1.89l1.14.33-.38,1.32-2.76-.8q-3-.87-2.24-3.42l.78-2.7a2.5,2.5,0,0,1,1.12-1.5,2.25,2.25,0,0,1,1.84-.19l2.48.72a2.05,2.05,0,0,1,1.54,1.81,3.1,3.1,0,0,1,2.75-.56l.06,0,.67.19.72.21,1-3.48L220.82,72l.35-1.23,16.42,4.76-.36,1.23Z" transform="translate(-8.33 -13.09)"/><path class="cls-3" d="M253.69,83.81,253,85.3l.55.26.55.25,0,0q3.19,1.47,2.22,3.57L255.17,92a1.93,1.93,0,0,1-2,1.28,8.33,8.33,0,0,1-2.41-.79l.58-1.25a1.52,1.52,0,0,0,.94.1,1.35,1.35,0,0,0,.56-.72l1-2.14a1,1,0,0,0-.23-1.22,4.7,4.7,0,0,0-1.2-.63l-4.06,8.8-6.92-3.19a3,3,0,0,1-1.56-1.51,2.46,2.46,0,0,1,0-2.15l2.51-5.43a2.37,2.37,0,0,1,1.4-1.33,2.59,2.59,0,0,1,1.94.14l4.9,2.26.69-1.49-8.68-4,.56-1.15L259.37,85l-.54,1.17ZM250,85.51,246.65,84a1.63,1.63,0,0,0-1.27-.1,1.5,1.5,0,0,0-.9.85l-2.17,4.71c-.45,1-.11,1.75,1,2.28l3.14,1.45Z" transform="translate(-8.33 -13.09)"/><path class="cls-3" d="M263.8,89.22a2.56,2.56,0,0,0-1.77-.28,2,2,0,0,0-1.38,1L257,96.55a2.06,2.06,0,0,0-.38,1.56,3.21,3.21,0,0,0,1.25,1l-.62,1.12-1.86-1.05a2.24,2.24,0,0,1-1.22-1.56,2.91,2.91,0,0,1,.39-2l3.57-6.39c.44-.78,1.51-1.25,3.2-1.4L258,86l.63-1.12,6.48,3.62-.57,1.15Z" transform="translate(-8.33 -13.09)"/><path class="cls-3" d="M276.3,97.26l-7,10.63-2.15-1.42,3.95-6-1.32-.87c-.67-.44-1.41-.18-2.23.79l-1.55-1c.48-.66.66-1.16.57-1.49s-.49-.73-1.19-1.19a2.28,2.28,0,0,0-1-.44,1.06,1.06,0,0,0-.85.59l-1.15,1.74c-.5.75-.14,1.52,1.06,2.31l1,.66-.76,1.14-2.4-1.59q-2.58-1.71-1.12-3.92l1.55-2.35a2.52,2.52,0,0,1,1.52-1.1,2.26,2.26,0,0,1,1.81.37l2.16,1.43a2,2,0,0,1,.93,2.18,3.1,3.1,0,0,1,2.79.28l.06,0,.58.38.62.41,2-3L263.67,88.9l.71-1.07,14.24,9.43-.7,1.07Z" transform="translate(-8.33 -13.09)"/><path class="cls-3" d="M286.3,105.45a2.79,2.79,0,0,0,.38,2.69l1.82,2.72c.6.93.67,1.67.2,2.21l-5.44,6.34-2-1.69,5-5.79q.57-.68-.06-1.92c-.35-.56-.72-1.17-1.12-1.83a10.13,10.13,0,0,1-.57-4.26l-2.93,3.41a1.16,1.16,0,0,0-.36.77,1.21,1.21,0,0,0,.49.71,2,2,0,0,0,1,.53,2.18,2.18,0,0,0,1.12-.19l1.8,1.55L282,114.86a2,2,0,0,1-3.25.3l-5.44-4.68a3.4,3.4,0,0,1-1.27-2.27,3.1,3.1,0,0,1,.81-2.44L277,101l2,1.72-4,4.64c-.93,1.08-.78,2.14.43,3.19l2.87,2.46a1.22,1.22,0,0,0,1.94-.09l2.24-2.61a1.8,1.8,0,0,1-1.58-.44l-1.49-1.27a1.58,1.58,0,0,1-.62-1.26,2.11,2.11,0,0,1,.56-1.36l3.23-3.76-5-4.28.83-1,15,12.9-.81,1Z" transform="translate(-8.33 -13.09)"/><path class="cls-1" d="M183.15,346.4A91.65,91.65,0,1,1,248,319.55,91.07,91.07,0,0,1,183.15,346.4Zm0-180a88.32,88.32,0,1,0,88.32,88.32A88.42,88.42,0,0,0,183.15,166.42Z" transform="translate(-8.33 -13.09)"/></svg>