<svg clip-rule="evenodd" fill-rule="evenodd" image-rendering="optimizeQuality" shape-rendering="geometricPrecision" text-rendering="geometricPrecision" viewBox="0 0 254000 254000" xmlns="http://www.w3.org/2000/svg"><g id="&#x56FE;&#x5C42;_x0020_1"><circle cx="127000" cy="127000" fill="#ff4141" r="127001"/><g fill="#fff"><path d="m110539 88655h11 11 11 11 11 11 11 35277 546 48257c2331 0 4233 1902 4233 4233v1c0 2331-1902 4233-4233 4233h-48257-546-35366-3119-9772-35366-3119c-2314 0-4207-1869-4233-4184s1829-4246 4146-4281c44 0 132-2 176-2h3042 11 11 11 11 11 11 11 35277 9810 51z"/><path d="m110539 122766h11 11 11 11 11 11 11 35277 546 48257c2331 0 4233 1902 4233 4233v1c0 2331-1902 4233-4233 4233h-48257-546-35366-3119-9772-35366-3119c-2314 0-4207-1869-4233-4184s1829-4246 4146-4281c44 0 132-2 176-2h3042 11 11 11 11 11 11 11 35277 9810 51z"/><path d="m110539 156877h11 11 11 11 11 11 11 35277 546 48257c2331 0 4233 1902 4233 4233v1c0 2331-1902 4233-4233 4233h-48257-546-35366-3119-9772-35366-3119c-2314 0-4207-1869-4233-4184s1829-4246 4146-4281c44 0 132-2 176-2h3042 11 11 11 11 11 11 11 35277 9810 51z"/></g></g></svg>