<svg xmlns="http://www.w3.org/2000/svg" version="1.1" xmlns:xlink="http://www.w3.org/1999/xlink" width="512" height="512" x="0" y="0" viewBox="0 0 512 512" style="enable-background:new 0 0 512 512" xml:space="preserve" class=""><g><path d="M392.599 13.5H119.401C61.007 13.5 13.5 61.007 13.5 119.401v273.198c0 58.394 47.507 105.901 105.901 105.901h273.198c58.394 0 105.901-47.507 105.901-105.901V119.401C498.5 61.007 450.993 13.5 392.599 13.5zM473.5 392.599c0 44.609-36.292 80.901-80.901 80.901H119.401c-44.609 0-80.901-36.292-80.901-80.901V119.401c0-44.609 36.292-80.901 80.901-80.901h273.198c44.609 0 80.901 36.292 80.901 80.901zM290.426 233.067l94.35-117.595c4.32-5.385 3.457-13.252-1.927-17.573-5.385-4.319-13.252-3.458-17.573 1.928L274.4 213.092 183.524 99.827a12.502 12.502 0 0 0-9.75-4.678h-73.601a12.5 12.5 0 0 0-9.75 20.322l131.15 163.462-94.35 117.595c-4.32 5.385-3.457 13.252 1.927 17.573a12.449 12.449 0 0 0 7.815 2.75 12.48 12.48 0 0 0 9.758-4.678L237.6 298.908l90.875 113.265a12.502 12.502 0 0 0 9.75 4.678h73.621c6.903 0 12.5-5.596 12.5-12.5 0-3.187-1.192-6.094-3.155-8.302zm53.797 158.784L126.229 120.149h41.548l217.994 271.702z" fill="#ffffff" opacity="1" data-original="#000000" class=""></path></g></svg>